<svg xmlns="http://www.w3.org/2000/svg" viewBox="0 0 512 512" width="512" height="512">
  <defs>
    <!-- Rich metallic gold gradients -->
    <linearGradient id="goldLight" x1="0%" y1="0%" x2="100%" y2="100%">
      <stop offset="0%" stop-color="#fffbeb" />
      <stop offset="25%" stop-color="#fef08a" />
      <stop offset="50%" stop-color="#fbbf24" />
      <stop offset="75%" stop-color="#d97706" />
      <stop offset="100%" stop-color="#92400e" />
    </linearGradient>
    <radialGradient id="celestialGlow" cx="50%" cy="50%" r="50%">
      <stop offset="0%" stop-color="#fbbf24" stop-opacity="0.35" />
      <stop offset="60%" stop-color="#d97706" stop-opacity="0.15" />
      <stop offset="100%" stop-color="#000000" stop-opacity="0" />
    </radialGradient>
    <linearGradient id="darkBg" x1="0%" y1="0%" x2="100%" y2="100%">
      <stop offset="0%" stop-color="#121624" />
      <stop offset="50%" stop-color="#090c15" />
      <stop offset="100%" stop-color="#04060a" />
    </linearGradient>
    <filter id="goldShadow" x="-20%" y="-20%" width="140%" height="140%">
      <feDropShadow dx="0" dy="4" stdDeviation="6" flood-color="#000" flood-opacity="0.6" />
    </filter>
  </defs>

  <!-- Deep Obsidian Background with Subtle Golden Rim -->
  <circle cx="256" cy="256" r="250" fill="url(#darkBg)" />
  <circle cx="256" cy="256" r="250" fill="url(#celestialGlow)" />
  <circle cx="256" cy="256" r="246" fill="none" stroke="url(#goldLight)" stroke-width="6" />
  <circle cx="256" cy="256" r="236" fill="none" stroke="#fbbf24" stroke-width="1.5" stroke-dasharray="4,6" opacity="0.7" />

  <!-- Outer Astrological Compass Notches (12 Directions / Zodiac) -->
  <g stroke="url(#goldLight)" stroke-width="3" stroke-linecap="round" opacity="0.85">
    <line x1="256" y1="20" x2="256" y2="38" />
    <line x1="256" y1="474" x2="256" y2="492" />
    <line x1="20" y1="256" x2="38" y2="256" />
    <line x1="474" y1="256" x2="492" y2="256" />
    <line x1="89" y1="89" x2="102" y2="102" />
    <line x1="410" y1="410" x2="423" y2="423" />
    <line x1="423" y1="89" x2="410" y2="102" />
    <line x1="102" y1="410" x2="89" y2="423" />
  </g>

  <!-- Middle Decorative Ring with Sacred Trigrams / Beads -->
  <circle cx="256" cy="256" r="200" fill="none" stroke="url(#goldLight)" stroke-width="2.5" opacity="0.6" />
  <g fill="#fbbf24">
    <circle cx="256" cy="62" r="4.5" />
    <circle cx="393" cy="119" r="4.5" />
    <circle cx="450" cy="256" r="4.5" />
    <circle cx="393" cy="393" r="4.5" />
    <circle cx="256" cy="450" r="4.5" />
    <circle cx="119" cy="393" r="4.5" />
    <circle cx="62" cy="256" r="4.5" />
    <circle cx="119" cy="119" r="4.5" />
  </g>

  <!-- Majestic 8-Pointed Celestial Destiny Star -->
  <g filter="url(#goldShadow)">
    <!-- Primary Cardinal 4-Star -->
    <path d="M256 65 L278 215 L428 237 L305 277 L256 427 L207 277 L84 237 L234 215 Z" fill="url(#goldLight)" />
    <!-- Secondary Diagonal 4-Star -->
    <path d="M256 120 L272 225 L377 241 L291 271 L256 376 L221 271 L135 241 L240 225 Z" fill="#d97706" opacity="0.75" />
  </g>

  <!-- Central Concentric Gold Mirror Medallion -->
  <circle cx="256" cy="256" r="92" fill="url(#darkBg)" stroke="url(#goldLight)" stroke-width="5" filter="url(#goldShadow)" />
  <circle cx="256" cy="256" r="82" fill="none" stroke="#fef08a" stroke-width="1.5" opacity="0.8" />

  <!-- Center Sacred Chinese Glyph: 命 (Destiny / Life) in Pure Gold -->
  <g fill="url(#goldLight)" filter="url(#goldShadow)">
    <text x="256" y="295" font-family="'Songti SC', 'SimSun', 'Noto Serif SC', 'Times New Roman', serif" font-size="108" font-weight="bold" text-anchor="middle" letter-spacing="0">
      命
    </text>
  </g>

  <!-- Divine 4 Tiny Star Accents around Center -->
  <circle cx="256" cy="180" r="3" fill="#fffbeb" />
  <circle cx="332" cy="256" r="3" fill="#fffbeb" />
  <circle cx="256" cy="332" r="3" fill="#fffbeb" />
  <circle cx="180" cy="256" r="3" fill="#fffbeb" />
</svg>
