<svg xmlns="http://www.w3.org/2000/svg" viewBox="0 0 96 96" role="img" aria-label="Likhitfa">
  <defs>
    <linearGradient id="gold" x1="18" y1="8" x2="78" y2="88" gradientUnits="userSpaceOnUse">
      <stop stop-color="#f7d28b"/>
      <stop offset="0.48" stop-color="#b9892e"/>
      <stop offset="1" stop-color="#0b2535"/>
    </linearGradient>
    <radialGradient id="paper" cx="50%" cy="35%" r="65%">
      <stop stop-color="#fffaf0"/>
      <stop offset="1" stop-color="#f2e4c9"/>
    </radialGradient>
  </defs>
  <circle cx="48" cy="48" r="44" fill="url(#paper)" stroke="url(#gold)" stroke-width="5"/>
  <circle cx="48" cy="48" r="34" fill="none" stroke="#5a3c16" stroke-width="3" opacity=".9"/>
  <path d="M24 66c9-8 16-8 24 0 8-8 15-8 24 0" fill="none" stroke="#0c2a38" stroke-width="5" stroke-linecap="round"/>
  <path d="M34 42c8 3 20 3 28 0M36 53c7-4 17-4 24 0" fill="none" stroke="#c89645" stroke-width="6" stroke-linecap="round"/>
  <path d="M48 22v52M44 27h8M42 62c4 4 8 4 12 0" fill="none" stroke="#4d350d" stroke-width="4" stroke-linecap="round"/>
  <path d="M72 28l3 7 7 3-7 3-3 7-3-7-7-3 7-3z" fill="#d4a045"/>
</svg>
